<svg width="24" height="24" viewBox="0 0 24 24" fill="none" xmlns="http://www.w3.org/2000/svg">
<path d="M12 24C18.6274 24 24 18.6274 24 12C24 5.37258 18.6274 0 12 0C5.37258 0 0 5.37258 0 12C0 18.6274 5.37258 24 12 24Z" fill="url(#paint0_linear_222_37)"/>
<path d="M4.46882 12.587C5.87162 11.8143 7.43752 11.1694 8.90062 10.5212C11.4177 9.45946 13.9448 8.41616 16.4974 7.44486C16.9941 7.27937 17.8864 7.11755 17.9739 7.85352C17.926 8.89532 17.7289 9.93102 17.5937 10.9667C17.2506 13.2443 16.854 15.5141 16.4672 17.7842C16.334 18.5404 15.3867 18.9318 14.7806 18.4479C13.324 17.4641 11.8562 16.4897 10.4182 15.483C9.94716 15.0044 10.384 14.317 10.8047 13.9752C12.0044 12.7929 13.2767 11.7884 14.4137 10.545C14.7204 9.8044 13.8141 10.4286 13.5152 10.6198C11.8728 11.7516 10.2706 12.9525 8.53904 13.9472C7.65454 14.4341 6.62364 14.018 5.73954 13.7464C4.94685 13.4181 3.78524 13.0875 4.46874 12.5871L4.46882 12.587Z" fill="white"/>
<defs>
<linearGradient id="paint0_linear_222_37" x1="16.001" y1="4.0008" x2="10.001" y2="18" gradientUnits="userSpaceOnUse">
<stop stop-color="#37AEE2"/>
<stop offset="1" stop-color="#1E96C8"/>
</linearGradient>
</defs>
</svg>
