<svg width="24" height="24" viewBox="0 0 24 24" fill="none" xmlns="http://www.w3.org/2000/svg">
<path d="M12 0C18.6274 0 24 5.37258 24 12C24 18.6274 18.6274 24 12 24C5.37258 24 0 18.6274 0 12C0 5.37258 5.37258 0 12 0Z" fill="#7F4DA0"/>
<path d="M15.1965 10.4792C15.1381 10.005 14.9924 9.63274 14.7335 9.30296C14.3975 8.87832 13.968 8.62404 13.3322 8.4732C12.9178 8.37266 12.7504 8.3842 12.6005 8.5211C12.4609 8.64936 12.4336 8.90648 12.5403 9.07298C12.6153 9.19383 12.7019 9.23713 12.9426 9.28437C13.2632 9.34335 13.4847 9.4199 13.6862 9.53512C14.1139 9.78209 14.3131 10.1686 14.3344 10.7942C14.3444 11.088 14.3698 11.1783 14.4724 11.2825C14.6626 11.473 15.001 11.4359 15.1446 11.208C15.1973 11.1221 15.2053 11.0847 15.2109 10.8852C15.2145 10.7617 15.2092 10.5779 15.1965 10.4792Z" fill="white"/>
<path d="M16.8726 11.0138C16.7882 9.56114 16.22 8.39239 15.2031 7.57008C14.6301 7.10802 13.9376 6.7903 13.1785 6.63578C12.9004 6.58052 12.3884 6.53573 12.3006 6.56135C12.2177 6.58508 12.1004 6.67482 12.0482 6.75598C11.9929 6.84399 11.9805 7.0405 12.0276 7.15416C12.1037 7.34417 12.2452 7.4113 12.6416 7.44598C13.2527 7.49944 13.8829 7.71412 14.3591 8.03195C14.9028 8.39381 15.335 8.88876 15.6145 9.47037C15.8561 9.97009 16.0047 10.6902 16.0005 11.3351C15.9992 11.5684 16.0352 11.7001 16.129 11.7964C16.2706 11.9445 16.477 11.9768 16.6591 11.8785C16.861 11.7723 16.9082 11.586 16.8726 11.0138Z" fill="white"/>
<path d="M18.727 16.6082C18.6986 16.5251 18.6323 16.3971 18.5849 16.3235C18.2865 15.8729 16.6832 14.6181 15.8827 14.2078C15.4256 13.973 15.0869 13.8947 14.8359 13.9682C14.5659 14.0441 14.4238 14.1698 13.9714 14.732C13.7891 14.9573 13.602 15.1684 13.5522 15.2016C13.4291 15.287 13.1875 15.3558 13.017 15.3558C12.6215 15.3534 11.9038 15.0972 11.352 14.7604C10.9233 14.4995 10.3739 14.0323 9.95233 13.5697C9.45496 13.0266 9.11633 12.5474 8.84868 12.0066C8.50292 11.3117 8.41529 10.8871 8.55974 10.5763C8.59527 10.4981 8.64265 10.4151 8.66393 10.3889C8.68526 10.3653 8.9079 10.1826 9.15418 9.98335C9.63735 9.59912 9.71549 9.51136 9.80548 9.24807C9.91916 8.91361 9.88839 8.57206 9.71313 8.22814C9.57812 7.96722 9.22524 7.39796 8.96947 7.03032C8.6308 6.54646 7.78767 5.5123 7.61949 5.37232C7.31635 5.12566 6.92797 5.08294 6.49926 5.24901C6.04695 5.42453 5.19906 6.10764 4.83669 6.58441C4.50986 7.01609 4.38438 7.32205 4.36541 7.72529C4.34884 8.05734 4.37725 8.19492 4.55252 8.61951C5.92379 11.9497 7.97001 14.6086 10.7813 16.7197C12.2496 17.8226 13.7725 18.6623 15.3521 19.2363C16.2734 19.5707 16.6737 19.5873 17.145 19.3122C17.3439 19.1936 17.8365 18.6884 18.1112 18.3207C18.566 17.7087 18.7341 17.4265 18.7815 17.2012C18.8147 17.047 18.7886 16.779 18.727 16.6082Z" fill="white"/>
<path d="M18.5773 11.3475C18.547 10.5257 18.4087 9.85173 18.1202 9.10027C17.8354 8.36108 17.5471 7.87872 17.0027 7.22631C16.488 6.61459 16.0883 6.26532 15.4543 5.87653C14.5697 5.33483 13.4932 4.97636 12.2868 4.8256C11.8754 4.77291 11.7823 4.77667 11.6561 4.86089C11.4115 5.02043 11.4148 5.41837 11.6601 5.57552C11.7413 5.62551 11.8134 5.64372 12.1425 5.6868C12.6477 5.75481 12.9725 5.81891 13.358 5.92408C14.8695 6.33727 16.0319 7.18184 16.809 8.43557C17.4593 9.48057 17.7292 10.5256 17.6909 11.8604C17.6776 12.3116 17.6872 12.391 17.7562 12.4994C17.8883 12.7015 18.2367 12.7415 18.4154 12.5738C18.5266 12.4716 18.5475 12.3949 18.5694 12.0087C18.5799 11.8072 18.5822 11.5098 18.5773 11.3475Z" fill="white"/>
</svg>
