<svg width="24" height="24" viewBox="0 0 24 24" fill="none" xmlns="http://www.w3.org/2000/svg">
<path d="M12 24C18.6274 24 24 18.6274 24 12C24 5.37258 18.6274 0 12 0C5.37258 0 0 5.37258 0 12C0 18.6274 5.37258 24 12 24Z" fill="#25D366"/>
<path d="M12.3945 4.4C14.3034 4.40083 16.0952 5.144 17.4424 6.49277C18.7895 7.84144 19.531 9.63412 19.5303 11.5406C19.5287 15.474 16.3287 18.6748 12.3945 18.6764H12.3916C11.1974 18.6759 10.0236 18.3767 8.98145 17.8082L5.19922 18.8004L6.21191 15.1021C5.58749 14.02 5.25825 12.7924 5.25879 11.5348C5.26055 7.60071 8.46166 4.40009 12.3945 4.4ZM12.3975 5.60508C9.12605 5.60508 6.46516 8.26576 6.46387 11.5357C6.46345 12.6563 6.77745 13.7478 7.37109 14.692L7.51172 14.9166L6.91211 17.1051L9.15723 16.5162L9.37402 16.6441C10.2846 17.1845 11.3284 17.4709 12.3926 17.4713H12.3945C15.6633 17.4713 18.3237 14.8107 18.3252 11.5406C18.3258 9.95589 17.7096 8.46539 16.5898 7.34434C15.4702 6.2235 13.9814 5.60571 12.3975 5.60508ZM10.21 8.24668C10.3194 8.25217 10.4666 8.20468 10.6113 8.55235C10.7599 8.90938 11.1166 9.78732 11.1611 9.87656C11.2056 9.96567 11.235 10.0693 11.1758 10.1881C11.1164 10.3069 11.0871 10.3819 10.998 10.4859C10.9089 10.59 10.8107 10.7185 10.7305 10.7984C10.6412 10.8873 10.5485 10.9833 10.6523 11.1617C10.7563 11.3402 11.1137 11.9243 11.6436 12.3971C12.3246 13.0045 12.8998 13.1926 13.0781 13.2818C13.2561 13.371 13.36 13.3566 13.4639 13.2379C13.5678 13.119 13.9093 12.7173 14.0283 12.5387C14.1471 12.3603 14.2663 12.3894 14.4297 12.4488C14.5932 12.5084 15.4701 12.9397 15.6484 13.0289C15.8266 13.1181 15.9447 13.1635 15.9893 13.2379C16.0338 13.3124 16.0342 13.6691 15.8857 14.0855C15.7371 14.5018 15.0253 14.8818 14.6826 14.9332C14.3756 14.9791 13.9865 14.9985 13.5596 14.8629C13.3006 14.7807 12.9683 14.6706 12.543 14.4869C10.7544 13.7146 9.58621 11.9136 9.49707 11.7945C9.40751 11.675 8.76972 10.8279 8.76953 9.95078C8.76953 9.07406 9.22876 8.64228 9.39258 8.46348C9.55584 8.28515 9.74928 8.23993 9.86816 8.23985C9.98692 8.23985 10.1061 8.24147 10.21 8.24668Z" fill="#FDFDFD"/>
</svg>
