<svg width="32" height="32" viewBox="0 0 32 32" fill="none" xmlns="http://www.w3.org/2000/svg">
<rect x="0.266667" y="0.266667" width="31.4667" height="31.4667" rx="7.2" stroke="white" stroke-width="0.533333"/>
<path d="M22.0304 5.54192C21.7606 5.63579 21.4731 5.74139 21.1681 5.85872C20.8747 5.96432 20.6107 6.08752 20.3761 6.22832C20.8923 6.52166 21.2619 6.87952 21.4849 7.30192C21.7078 7.72432 21.8193 8.21712 21.8193 8.78032C21.8193 9.22619 21.7019 9.64859 21.4672 10.0475C21.2443 10.4465 20.9568 10.7985 20.6049 11.1035C20.2528 11.4086 19.8598 11.655 19.4256 11.8427C19.0032 12.0187 18.5984 12.1067 18.2112 12.1067C17.8006 12.1067 17.4838 12.0246 17.2608 11.8603C17.0496 11.6843 16.9441 11.4614 16.9441 11.1915C16.9441 11.0273 16.9969 10.8865 17.1025 10.7691C17.2198 10.6401 17.3664 10.5755 17.5424 10.5755C17.6246 10.5755 17.7126 10.6049 17.8064 10.6635C17.9003 10.7105 17.9648 10.775 18.0001 10.8571C17.9414 10.9275 17.8886 10.9979 17.8417 11.0683C17.8064 11.1387 17.7888 11.2209 17.7888 11.3147C17.7888 11.5142 17.8475 11.6609 17.9648 11.7547C18.0822 11.8486 18.2347 11.8955 18.4224 11.8955C18.7275 11.8955 19.0208 11.7841 19.3025 11.5611C19.5958 11.3382 19.8598 11.0449 20.0944 10.6811C20.3291 10.3174 20.5168 9.91259 20.6576 9.46672C20.7984 9.00912 20.8689 8.55152 20.8689 8.09392C20.8689 7.67152 20.8043 7.32539 20.6753 7.05552C20.5579 6.78566 20.3702 6.56272 20.1121 6.38672C19.5019 6.73872 18.9446 7.23152 18.44 7.86512C17.9355 8.49872 17.4427 9.20272 16.9616 9.97712C16.4923 10.7398 16.0171 11.5377 15.536 12.3707C15.055 13.1921 14.5328 13.9782 13.9696 14.7291C13.4182 15.4683 12.8022 16.1371 12.1216 16.7355C11.4411 17.3339 10.6608 17.7857 9.78085 18.0907V18.1259C10.2971 18.2081 10.7782 18.2609 11.224 18.2843C11.6816 18.3195 12.1744 18.3371 12.7024 18.3371C14.4507 18.3371 15.9643 17.9323 17.2432 17.1227C18.5222 16.3014 19.6251 15.175 20.552 13.7435L20.6929 13.8139C20.1648 14.6118 19.6251 15.3099 19.0737 15.9083C18.5339 16.495 17.9414 16.9878 17.296 17.3867C16.6507 17.7739 15.9408 18.0673 15.1664 18.2667C14.4038 18.4545 13.5296 18.5483 12.544 18.5483C12.0747 18.5483 11.5584 18.5131 10.9952 18.4427C10.4438 18.3723 9.94512 18.2902 9.49925 18.1963C9.39365 18.1963 9.07685 18.255 8.54885 18.3723C8.02085 18.4897 7.29925 18.5483 6.38405 18.5483C5.79738 18.5483 5.38085 18.5014 5.13445 18.4075C4.88805 18.3137 4.76485 18.1905 4.76485 18.0379C4.76485 17.8854 4.83525 17.7622 4.97605 17.6683C5.11685 17.5745 5.36325 17.5275 5.71525 17.5275C5.99685 17.5275 6.27258 17.5393 6.54245 17.5627C6.81232 17.5862 7.09392 17.6214 7.38725 17.6683C7.69232 17.7035 8.00912 17.7563 8.33765 17.8267C8.67792 17.8854 9.05338 17.9558 9.46405 18.0379C9.98032 17.9206 10.4966 17.5921 11.0128 17.0523C11.5291 16.5126 12.0512 15.8614 12.5792 15.0987C13.119 14.3243 13.6646 13.4913 14.216 12.5995C14.7792 11.6961 15.3542 10.8278 15.9408 9.99472C16.5392 9.14992 17.1611 8.39312 17.8064 7.72432C18.4518 7.05552 19.1323 6.56272 19.848 6.24592C19.6016 6.12859 19.3024 6.05232 18.9504 6.01712C18.5984 5.97019 18.2817 5.94672 18.0001 5.94672C17.3664 5.94672 16.6918 6.02886 15.976 6.19312C15.272 6.34566 14.5739 6.56859 13.8816 6.86192C13.1894 7.14352 12.5264 7.49552 11.8928 7.91792C11.271 8.34032 10.7195 8.81552 10.2384 9.34352C9.75738 9.85979 9.37605 10.4347 9.09445 11.0683C8.81285 11.6902 8.67205 12.3531 8.67205 13.0571C8.67205 13.6203 8.80112 14.0545 9.05925 14.3595C9.32912 14.6646 9.72218 14.8171 10.2384 14.8171C10.6843 14.8171 11.1008 14.7057 11.488 14.4827C11.8752 14.2481 12.2096 13.9547 12.4912 13.6027C12.7846 13.239 13.0134 12.8401 13.1776 12.4059C13.3419 11.9601 13.424 11.5318 13.424 11.1211V10.4523H13.6352V11.1211C13.6352 11.5553 13.5472 12.007 13.3712 12.4763C13.1952 12.9339 12.9547 13.3563 12.6496 13.7435C12.3446 14.119 11.975 14.4299 11.5408 14.6763C11.1184 14.911 10.6608 15.0283 10.168 15.0283C9.86298 15.0283 9.58138 14.9697 9.32325 14.8523C9.07685 14.735 8.85978 14.5766 8.67205 14.3771C8.49605 14.1777 8.35525 13.9489 8.24965 13.6907C8.15578 13.4209 8.10885 13.1334 8.10885 12.8283C8.10885 12.2886 8.23205 11.743 8.47845 11.1915C8.73658 10.6283 9.08858 10.0827 9.53445 9.55472C9.98032 9.02672 10.5142 8.53392 11.136 8.07632C11.7579 7.60699 12.4384 7.20219 13.1776 6.86192C13.9168 6.50992 14.703 6.23419 15.536 6.03472C16.3808 5.83526 17.2374 5.73552 18.1056 5.73552C18.5515 5.73552 18.9328 5.77072 19.2496 5.84112C19.5664 5.89979 19.8598 5.98779 20.1297 6.10512C20.7163 5.84699 21.3382 5.63579 21.9953 5.47152L22.0304 5.54192Z" fill="white"/>
<path d="M22.7402 14.9392C22.7402 14.7397 22.7226 14.552 22.6874 14.376C22.6522 14.2 22.5877 14.0474 22.4938 13.9184C22.4 13.7776 22.2592 13.6661 22.0714 13.584C21.8954 13.5018 21.6666 13.4607 21.385 13.4607C21.3264 13.4607 21.256 13.4607 21.1738 13.4607C21.1034 13.4607 21.033 13.4725 20.9626 13.496C20.7984 13.672 20.6341 13.889 20.4698 14.1472C20.3056 14.3936 20.1589 14.6693 20.0298 14.9744C19.9008 15.2794 19.7952 15.6021 19.713 15.9424C19.6309 16.2826 19.5898 16.6288 19.5898 16.9808C19.5898 18.7994 20.3173 20.1605 21.7722 21.064C22.3354 20.1605 22.7813 19.1866 23.1098 18.1424C23.4501 17.0981 23.6202 16.0421 23.6202 14.9744C23.6202 14.7514 23.6085 14.5168 23.585 14.2704C23.5616 14.024 23.5088 13.801 23.4266 13.6016C23.3445 13.3904 23.2154 13.2202 23.0394 13.0912C22.8752 12.9504 22.6464 12.88 22.353 12.88C22.1418 12.88 21.9306 12.9152 21.7194 12.9856C21.52 13.0442 21.3557 13.1205 21.2266 13.2143L21.2618 13.2496H21.5082C21.8016 13.2496 22.0421 13.2965 22.2298 13.3904C22.4176 13.4842 22.5642 13.6133 22.6698 13.7776C22.7754 13.9301 22.8458 14.112 22.881 14.3232C22.928 14.5226 22.9514 14.728 22.9514 14.9392H22.7402ZM14.7498 22.6304C14.7498 22.912 14.785 23.1994 14.8554 23.4928C14.9376 23.7744 15.0549 24.0325 15.2074 24.2672C15.3717 24.5018 15.5712 24.6954 15.8058 24.848C16.0522 24.9888 16.3338 25.0592 16.6506 25.0592C17.0848 25.0592 17.5482 24.936 18.041 24.6896C18.5338 24.4314 19.009 24.1146 19.4666 23.7392C19.936 23.352 20.3642 22.9354 20.7514 22.4896C21.1386 22.0437 21.4437 21.6272 21.6666 21.24C20.8922 20.7824 20.3056 20.2016 19.9066 19.4976C19.5077 18.7818 19.3082 17.9898 19.3082 17.1216C19.3082 16.8634 19.3317 16.5877 19.3786 16.2944C19.4256 15.9893 19.5018 15.6842 19.6074 15.3792C19.713 15.0741 19.848 14.769 20.0122 14.464C20.1765 14.1472 20.3818 13.8538 20.6282 13.584L20.593 13.5487C19.8538 13.7717 19.1322 14.1941 18.4282 14.816C17.736 15.4261 17.1141 16.1536 16.5626 16.9984C16.0229 17.8432 15.5829 18.7584 15.2426 19.744C14.9141 20.7178 14.7498 21.68 14.7498 22.6304ZM26.5594 20.5712C26.3834 20.7589 26.1781 20.929 25.9434 21.0816C25.7205 21.2341 25.4858 21.3632 25.2394 21.4688C24.993 21.5744 24.7466 21.6565 24.5002 21.7152C24.2538 21.7738 24.0192 21.8032 23.7962 21.8032C23.4208 21.8032 23.0981 21.768 22.8282 21.6976C22.5584 21.6272 22.3061 21.545 22.0714 21.4512C21.7898 21.8618 21.432 22.296 20.9978 22.7536C20.5754 23.2112 20.112 23.6336 19.6074 24.0208C19.1029 24.3962 18.5749 24.713 18.0234 24.9712C17.472 25.2176 16.9322 25.3408 16.4042 25.3408C15.4773 25.3408 14.7792 25.0768 14.3098 24.5488C13.8522 24.009 13.6234 23.2874 13.6234 22.384C13.6234 21.6565 13.7408 20.9408 13.9754 20.2368C14.2218 19.521 14.5445 18.8405 14.9434 18.1952C15.3424 17.5381 15.7941 16.928 16.2986 16.3648C16.8149 15.8016 17.3429 15.3029 17.8826 14.8688C18.4224 14.4346 18.9504 14.0826 19.4666 13.8128C19.9946 13.5312 20.4698 13.3552 20.8922 13.2848C21.0682 13.1205 21.2853 12.9797 21.5434 12.8624C21.8133 12.7333 22.1008 12.6688 22.4058 12.6688C23.1216 12.6688 23.6437 12.8976 23.9722 13.3552C24.3008 13.8128 24.465 14.4874 24.465 15.3792C24.465 15.8485 24.3946 16.353 24.2538 16.8928C24.113 17.4208 23.9312 17.9488 23.7082 18.4768C23.497 19.0048 23.2565 19.5093 22.9866 19.9904C22.7168 20.4714 22.4469 20.8997 22.177 21.2752C22.4117 21.3808 22.6581 21.4629 22.9162 21.5216C23.1861 21.5685 23.4853 21.592 23.8138 21.592C24.2832 21.592 24.7466 21.4864 25.2042 21.2752C25.6618 21.064 26.0784 20.7882 26.4538 20.448L26.5594 20.5712Z" fill="white"/>
</svg>
